<svg xmlns="http://www.w3.org/2000/svg" viewBox="0 0 515.4 973.1">
    <defs>
        <style>
            .cls-1,.cls-2{fill:#fff;}.cls-1{stroke:#7c7c7c;stroke-linecap:round;stroke-linejoin:round;stroke-width:2px;}.cls-2{stroke:#231815;stroke-miterlimit:10;stroke-width:0.5px;}</style>
    </defs>
    <g id="圖層_1" data-name="圖層 1">
        <path id="TWN1156" class="cls-1"
            d="M254.2,534.4l1.9,5.8-3,5-5.6,2.4-1.4,3.2,1,4,5.6,3.6,6.3,5.2,2.8,7.6.3,2.5-15.6,3.8-6.4,4.1-4,3.9-7.8,5.1-.9,5.7,2.3,6-2.7,4.9-7.4,4-.8,6.9,2.1,9.9-3,13.2-.1,11.2-4.3,5.9-8.5,7.2-2.3,9.8,1.3,8.1,3,4.6,6.2,6.4,1.2,4.9-3.9.5-5.2-.9-4.3.2-8.5,6.7-5.9-5.5-7.6-8.9-7.2,1.8-6.6,5.9-13.1-6.6-9.4,4.5-6.4,7.1-8,2.8-17.8-1.1-1.7,4.9-1.3,7.2-2.6,7.9.5,7-.1,9.5-5.7,21.2-.1,7.1,2.7,7.5.4,8.2-8.1,20.5-2.6-1.1-1.6.1-1.8.7H86.3l-13-10.2L61.2,779.2l12.7,15.4-1.5-7.4L68.6,780l-5.3-6-9-8.4-3.5-4.2-1.6-4.8,2.2-4.6,1.1-4.1L51,742.1l-2.7-5.6-4.9-7.7-4.6-10.2-1-4.5.1-3,1.5-3.6.3-2.4-.5-1.2-2.7-2.3-.5-2.3-2.9-4.9-.7-2-2.1-13.6,6.1-3.7.2.5,3.9,8.6,4.8,2.5L61,688.9l8.2-.9,8.4,1,4.2-1.5,3.5-2.6,6.5-2.6,6.3-4.4,2.4-5.5,3-5.2,5.3-7.1,6.1-6.4,6.5-5.4,7.4-7.2,6.5-8.4,10-17,10.4-15.1L158,594l-1-6.7-1.4-4.5.1-5,3.6-3.5,6.9.7,5.8-.6,12.3-7.3,4.5-5.4,7.9-6.1,7.7-4.3,4.2-5,3.6-6.8,8.5-6.8,18.5-9.4,4.3,1,5.8,2.2,4.2,5.9.7,2Z"
            transform="translate(1 1)" />
        <path id="TWN1158" class="cls-1"
            d="M210.5,699.8l3.5,6.6.7,4.9,5.4,1.3,5.5,3.6L222.8,730l-.1,5.2-2,5-9.8,4.1-4.8,2.7-7.6,1.6-5.4,4.5-2.4,6.6-3.7,6.6-3,7.5-.8,14.7,1.2,6.5,2,6.1,1.1,7.1v5.4l2.6,5,4.6,5.6-2.5,3.8-5.3,3.2-2.1,3.9-.5,4.5,2.7,3.9,3.4,1.7,3.1,4.4-.1,5.7.6,6.1,3.2,5.9,4.6,4.9,10.2,4.7,4.5-.3.9,51.6-1.6,7.3-2.5,6-3.4,2.5-4,3.7.1,8.3,1.5,9.2-.4,5.9-4.5-6.8-6.8-5.2-7.8-3.5-8-1.9-.3,6.6-2.3,2.3-3.4-.8-3.7-3.1-.2-2.4,1.3-7-5.5-9.2-.5-2.4.1-2.1.4-3.2V921.6l.5-3.1,2.5-3.6.5-3-19.9-51.6-1.6-2.9-5.5-6.8-4.4-9.9-2-2.8-8.2-6.5-5.4-3-.9-3.7-.7-1.3-4.4-2.9-10-4.8-4.5-3.1-4.8-4.2-2.6-1.6,8.1-20.5-.4-8.2-2.7-7.5.1-7.1,5.7-21.2.1-9.5-.5-7,2.6-7.9,1.3-7.2,1.7-4.9,17.8,1.1,8-2.8,6.4-7.1,9.4-4.5,13.1,6.6,6.6-5.9,7.2-1.8,7.6,8.9,5.9,5.5,8.5-6.7,4.3-.2,5.2.9Z"
            transform="translate(1 1)" />
        <path id="TWN1160" class="cls-1"
            d="M158,594l-2.3,6.6-10.4,15.1-10,17-6.5,8.4-7.4,7.2-6.5,5.4-6.1,6.4-5.3,7.1-3,5.2-2.4,5.5-6.3,4.4-6.5,2.6-3.5,2.6L77.6,689l-8.4-1-8.2.9-15.7-2.2-4.8-2.5-3.9-8.6-.2-.5-6.1,3.7-1-6.3-1.8-3.6L23.6,665l4.7-3.4,2.7-6.1-1.1-5.2-6.3-.9-1.2,1.8-1.1,3.4-1.8,2.7-3.3-.1-1.3-2.3.5-7-.8-2.4-4.1-1.8-2.3,2.1-1.8,2.9-2.8.7L.7,646.9,0,643.4.7,640l1.1-2.3,3-1.6,3.7-.5,3.1-1,1-3-1.4-1.5-9.4-2.4v-1.9l7.9-.1-.8-2.6-4.3-3.7-2.8-3.2.7-4L5,610.7l2.7-.9,1.4-2.5-.8-3.9-1.4-3.2.9-3,1.4-3.7,2.3-2.6-.5-2.3.5-2.3,3.3-9,1.6-1.7L19,575l-3.7-2.5,1.6-4.1,5.2,2,8.9,1.3,7.2,1.8,6.2-2.8,2.5-4.9,5.8-3.6,6.6-5.1,4.7-4.8,6.1-4.6,7.8-3.5,15.2-2.8,8.5-.5,7.2,2.4,4,2.4,2.1,4.2,1.7,5.1,9.9,10.1,1,7.5-1.8,14.2,1.6,4.6,4.5,3.5h3.8l5.3-2.4,5-.6,3.7,1.1,8.4,1Z"
            transform="translate(1 1)" />
        <path id="TWN1161" class="cls-1"
            d="M238.7,166.1l-.2.2-4.6,1.1-4.4-1.7-2.7-3.8-4.3-2.6-6.9-2.7,1.2-4.1,5.5-11.4,2.2-3,.7-1.5v-1.7l-.7-1.9-1.1-2.2,1.5-3,1.8-1.8,8.3,3.6,15.1,4.8,5.4,2.8,3.8,3.9,1.9,3.7-1,3.6-2.4,1.4-5.1.9-5.9,2.4-3.4,4.3-2.3,5.6-2.4,3.1Z"
            transform="translate(1 1)" />
        <path id="TWN1162" class="cls-1"
            d="M357.5,200.7l-2.3,6.5-1.4,4.7.6,4.4-3.8,5.8-14,14.2-4.3,10.5-2.8-.8-10.6,1-.8.6-.6-4.9-4.6-7.8-3.3-3.3-1.3-4.4-5-4-12.5,3.2-4.8-.5-6.8.5-7.7,2.1-4.1-1,.9-5.1,1.3-4.6-1-4-1-2.9,1-3.1.8-3.5.3-3.9-.7-5.2-3.9-3.4L253,186.1l-6-4.5-3.9-4.4-4.4-11.1,2.4-3.1,2.3-5.6,3.4-4.3,5.9-2.4,5.1-.9,2.4-1.4,1-3.6-1.9-3.7-3.8-3.9-5.4-2.8L235,129.6l-8.3-3.6,1.5-2.3.6-3.9.9-2.9,2-2.9,2.7-2.1,2.5-.9-.2-1.2.7-2.9,2.2-6.1,2.1-3.3,3.1,1.1,13.7-1,4.6,3.1,4,8.7,5,2,4.3,1.2,4.1,2,6.8,2.2,3.6,4.2-1.1,5.8,3.5,3.7,6.5,2.1,4.2,3.1,3.1,3.1,3.8.7,3.9-.3,3.4,3.5,2.6,4.5,4.3,2.2,3.4,2.6.4,5,1.6,7.3-1.9,7.8-4.6,6.5.5,4.3,5.2,3.9,6.2,3.8,5.5.9,4,2.9,7.3,4.1,4.8,2.2Z"
            transform="translate(1 1)" />
        <path id="TWN1163" class="cls-1"
            d="M449.8,278.6h-1.1l-11.1-1.7-18.5-11.1-3.8.9-2.4,6-4.9,4.5h-6.5l-8.3-3.2-15-3.8-6.5-3.1-2.5-2.1-5.9-4.7h-4.9l-4.7,2.3-4,.6-3.7-2.5-4.4-2.6-4.9-1-1.4-3.8.6-5.5-3.6-1,4.3-10.5,14-14.2,3.8-5.8-.6-4.4,1.4-4.7,2.3-6.5.5-1.5,3.9-1.6,3.3.6,3.4-1.3,2.2-3.8-3.1-12.4,5.4-3.9,3.1-.9,5.7-1.6,4.9-1.8,3.8-3.3,5-3.5,6.6-3.2,3.9-2.8-.4-2-1-3.2-.2-4.2,2-4.9,4.7-4,3.8-2.3,13-5.3,13.5-8.1,6.2-1.9,5-3.6,3.1-5,3.3-4.1,3.7-2,3.5-1.2,4.6-2.9,1.6-3.8L470,97.6l1.4-2.9,11.2-2.3,3.7-2.5,8.4-4.4,5.9-1.3,3.3,1.9.8,1.1-12,6-5.5,4.7-18.7,22.8-2.9,4.8-2.3,6.8-1.6,7.7-.5,7.6.3,7.4,3.3,15.5-.2,4-1.5,3.9.2,8.1,3.5,6.3,6.5,4,7.6,1.4V200l-3.2-.3-3.1.3-2.6.8-1.9,1.4,2.7,5,1.3,6.5-.8,5.6-6,3.4-.4,2.5.7,3,1.7,2.7.6,2.8-2.5,2.4-6.2,3.6-7,8-.3,3.2.5,7-1.2,2.6-1.3,2.3-.8,3.2-.5,6.4L450,274l-1,1.3-.5,1.4,1.3,1.9Z"
            transform="translate(1 1)" />
        <path id="TWN1164" class="cls-1"
            d="M449.2,42.1,448.9,54l.2,3,3.7,3.9-.4,2.5-2.5,1.8-4,1.5-5.1-.6-10.6-4.4-3-2.2-3.7-3.4-2.8-3.5L419,49.1l-2.9-3.7-.6-2.9,3.2-2.2,7.2-3.1,4.4-2.9,1.4.9,2.4,2.7,3.9,1.4,11.2,2.8Z"
            transform="translate(1 1)" />
        <path id="TWN1165" class="cls-1"
            d="M238.7,166.1l4.4,11.1,3.9,4.4,6,4.5,12.1,5.7,3.9,3.4.7,5.2-.3,3.9-.8,3.5-1,3.1,1,2.9,1,4-1.3,4.6-.9,5.1,4.1,1,7.7-2.1,6.8-.5,4.8.5,12.5-3.2,5,4,1.3,4.4,3.3,3.3,4.6,7.8.6,4.9-3.7,2.6-1.8,5.6-4.9,2-5.3-.1-4.2,3-4.6,4.4-5.9,3.2-11.6,9.2-6.8,2.9-8.9,4.7L255,283l-5-5.6-6-2.4-9.9-.8-5.5,3.3-.9,7.4-5.2,2.8-12.1.7-11.6-6.7-6.6-1.2-7.3-3.6-15.1-11.1-6.3-5.5-4.7-5L149.6,241l7.2-8.1,1.9-4,.9-6.6,2.2-5.6,5.9-10.4,1.6-6.3,1.5-2.7,6.8-2,1.9-2.1,1.1-2.6,1.4-2.5,4.2-4.3,4.6-3.4,5.6-1.5,7.1,1.3-.9-5.4,2.7-3.7,3.7-3.8,1.9-5.7.8-1.9,3.6-1.8.3-1.3,6.9,2.7,4.3,2.6,2.7,3.8,4.4,1.7,4.6-1.1.2-.2Z"
            transform="translate(1 1)" />
        <path id="TWN1166" class="cls-1"
            d="M411.8,90.3,407.6,92l-5.8-.1-4.8-1-3.7-3.3-3.8-4.3-5.8-4.6L379.8,72l1.5-7.4-1.2-6.3-5.7-5.5-3.8-4.2,1.6-3,1.8-2.4,2.1-4.6,3.6-4,10.9-6.4,2.9-2.5,4-2,3.8,1.2,2.1,2.2-.5,3.6.4,3.5,3.2,6.8L409,51l3.9,3.5,1.6,4.4-1.6,6.6.1,5.1,4.6,2.6,3.8,3.2-2,4.3-7.6,9.6Z"
            transform="translate(1 1)" />
        <path id="TWN1167" class="cls-1"
            d="M430.3,34.3l-4.4,2.9-7.2,3.1-3.2,2.2.6,2.9,2.9,3.7,1.7,3.5,2.8,3.5,3.7,3.4,3,2.2,10.6,4.4,5.1.6,4-1.5,2.5-1.8.4-2.5L449.1,57l-.2-3,.3-11.9,34.6,8.4,3.2,2-1.6,3.7-.4,2.9.7,5.2,2.4,8.7,2.6,4.1,2.2.9,7-1,3.6.4,4.2,1.1,3.7,1.9,2,2.5-8.7,4.3-.8-1.1-3.3-1.9-5.9,1.3-8.4,4.4-3.7,2.5-11.2,2.3L470,97.6l2.5,3.6-1.6,3.8-4.6,2.9-3.5,1.2-3.7,2-3.3,4.1-3.1,5-5,3.6-6.2,1.9L428,133.8l-13,5.3-3.8,2.3-4.7,4-2,4.9.2,4.2,1,3.2.4,2-3.9,2.8-6.6,3.2-5,3.5-3.8,3.3-4.9,1.8-5.7,1.6-2.5-5.4-8.9-8.5-1.4-5.6-.8-5.2,3.1-3.7,1.5-5.3-8.5-12.3-5-2-7.4.4-5.1-2.9,1.3-6.7-1-5.1-5.4-5.1-1-5.1,1-5.8-.2-6.2,3.7-4,13.1-3.9,3.3-3.4,1-4.2-.5-4.1-5.1-7.5-4.2-2.2-4.1-1-3.2-2.8-4.7-3.1-6.3-3-4.2-4.6,11.2-2.1,4.8-1.8,6.1-5.2,1.9-.9,2.2-.4H354l3.5,1.1,1.9,2.7,1.2,2.7,1.5,1.6,3.5-1.4L362,38.2l-5.8-5.9-3.1-1.9.9-2.7,1.8-1.5,1.9-.9.8-1,2.1-5.1,3.2-5.9,6.6-5.9L380,2.5,391,0l10.8,1.2,4.5,3.4,10,14.2,3.6,7.4,1.2-.5,2.7-.7,3-.4,2.2.6-.1.9-1.1,1.3-1,1.8.1,2.2,1.1,1.2,2.3,1.7Zm-18.5,56,7.6-9.6,2-4.3-3.8-3.2L413,70.6l-.1-5.1,1.6-6.6-1.6-4.4L409,51l-2.5-10-3.2-6.8-.4-3.5.5-3.6-2.1-2.2-3.8-1.2-4,2-2.9,2.5-10.9,6.4-3.6,4L374,43.2l-1.8,2.4-1.6,3,3.8,4.2,5.7,5.5,1.2,6.3L379.8,72l3.9,6.7,5.8,4.6,3.8,4.3,3.7,3.3,4.8,1,5.8.1,4.2-1.7Z"
            transform="translate(1 1)" />
        <path id="TWN1168" class="cls-1"
            d="M376.2,175.9l-3.1.9-5.4,3.9,3.1,12.4-2.2,3.8-3.4,1.3-3.3-.6-3.9,1.6-.5,1.5-4.8-2.2-7.3-4.1-4-2.9-5.5-.9-6.2-3.8-5.2-3.9-.5-4.3,4.6-6.5,1.9-7.8-1.6-7.3-.4-5-3.4-2.6-4.3-2.2-2.6-4.5-3.4-3.5-3.9.3-3.8-.7-3.1-3.1-4.2-3.1-6.5-2.1-3.5-3.7,1.1-5.8-3.6-4.2-6.8-2.2-4.1-2-4.3-1.2-5-2-4-8.7-4.6-3.1-13.7,1-3.1-1.1,8.9-14.2,6.9-8.3,7.2-6.1,18.4-6.1,4.3-2.7,3.7-3.2,4.5-2.5,9-3.2,20.1-3.6,4.2,4.6,6.3,3,4.7,3.1,3.2,2.8,4.1,1,4.2,2.2,5.1,7.5.5,4.1-1,4.2-3.3,3.4-13.1,3.9-3.7,4,.2,6.2-1,5.8,1,5.1,5.4,5.1,1,5.1-1.3,6.7,5.1,2.9,7.4-.4,5,2,8.5,12.3-1.5,5.3-3.1,3.7.8,5.2,1.4,5.6,8.9,8.5,2.5,5.4Z"
            transform="translate(1 1)" />
        <path id="TWN1169" class="cls-1"
            d="M161.6,366.7l.1,3.6-4.3,1.6-1.2,2.9.5,4-2,4.6-1.6,5.4-.1,5.7-1.2,6.6-.9,13.4,2.1,6.3,3.6,3.3,3.9,1.4,5.6,2.9-1,3.5-3.8,1.5-2.5,2.3-2.4,1.6-1,.7-12-2.4-5.8.1-12.2-6-19.7-2.3L94.1,423l-6.6-1.8-7.6-.4-22,2.6L50.3,419l.8-1.4,1.6-7.1,1.2-3,7.1-6.8,2-2.8,2.7-7.8,4.2-7.7,5.7-16.1,2.7-4.7,3-3,2.5-1.7,2.2-1.1,1.6-1.4.6-3,1.2-2.8,5.1-4,1.2-3,.6-10.1.9-2.8,2.7-2.6,11.3-13.2,5.8,1.9,4,3.5,2.7,6.3,1,7.6,4.5,5.4,11.9,3.5,4.3,3.6,3.2,5,2,4,.1,4,1.2,3.3,4.3.8,5.4,3.5v1.4Z"
            transform="translate(1 1)" />
        <path id="TWN1170" class="cls-1"
            d="M180.9,482.8l6.1.7,6.8,2.6,4.1,1.2,5.1,2.8-.3,5.3-3,5.1,1.2,4.8,2.7,6.5.4,5.9,1.1,3.8,7.6,1.4,25.6.2.9.2-18.5,9.4-8.5,6.8-3.6,6.8-4.2,5-7.7,4.3-7.9,6.1-4.5,5.4L172,574.4l-5.8.6-6.9-.7-3.6,3.5-.1,5,1.4,4.5,1,6.7-8.4-1-3.7-1.1-5,.6-5.3,2.4h-3.8l-4.5-3.5-1.6-4.6,1.8-14.2-1-7.5L116.6,555l-1.7-5.1-2.1-4.2-4-2.4-7.2-2.4-8.5.5-15.2,2.8-7.8,3.5L64,552.3l-4.7,4.8-6.6,5.1-5.8,3.6-2.5,4.9-6.2,2.8L31,571.7l-8.9-1.3-5.2-2,3.8-.3,3.3-1.4,1.4.5-.9-3.2-2.2,1.6-1.8-.5L18,565v-3.3l2.4-5.6,3.7-.3,5.4.1-3.7-10.5-4.1-8,1.9-3.7v-1.9l-3.1-1.5.4-1.8,1.8-2,.9-2.6,4-5.2-8.5.5-.2-8.7,11.6-1.4,8.3,4.7,6.1.1,3.9-3.2,1.7-4.9,2.1-3,5.3-.8,7-5.7,4.4-2.4,3.8-3.8,16.3-9.4,7.2-2,12.6-2.3,6.9-.4,5.3,4.6,5,5.9,12.6,4.6,3.7-.5,8.3-2.4,4.7,3.4,2.4,3.9,6.3-.6,11.7-2.4,4-1.3v-3.4l.3-5ZM88.2,513.6l-3.8,4.1.9,5.6,6.1,2.4,7,4.5,7.3,1.7,6.8-2.7,4.5-.6,3-2.2-2.5-6.8-2.5-4-4.1-2.2-5.6-2.1-7.8.7-9.3,1.6Z"
            transform="translate(1 1)" />
        <path id="TWN1171" class="cls-1"
            d="M88.2,513.6l9.3-1.6,7.8-.7,5.6,2.1,4.1,2.2,2.5,4,2.5,6.8-3,2.2-4.5.6-6.8,2.7-7.3-1.7-7-4.5-6.1-2.4-.9-5.6,3.8-4.1Z"
            transform="translate(1 1)" />
        <path id="TWN1172" class="cls-1"
            d="M449.8,278.6l.6.8,1.6,2.9.2,1.1-1.4,2.4-5.8,5.7-6.2,8.6-4.7,3.7-1.4,2,.7,2.1-.9,1.5-6.6,5.1-2.5,2.4-2.8,6-2.9,12.2L410.3,346l-1.5,4.4.2,4.7,1.8,5.2,1.5,2.3,1.3,1,.8,1.4.1,3.2-1.1,3.6-3.7,5.8-.7,3.5-.4,6.4-3.2,16.3-6.4,17-8,40.1-4.8,9.8-11,64.1-3.5-1L360.9,539l-3.9,5.4,1.7,6.9.6,6.9-3.6,6.9-3.4,5.2-2.7,6.6-2.4,8.4-3.7,7.7-4.8,13.2-3.1,6.1.1,6.7-.9,6.2-6.5,3.7-8.2-1.1-11.7-9.7-9.2-16-5.7-1.5-6.3-.9-5-4.8-6.1-2.9-7.8-2.8-5-8.1-1.2-7.4-.3-2.5-2.8-7.6-6.3-5.2-5.6-3.6-1-4,1.4-3.2,5.6-2.4,3-5-1.9-5.8,6-3.5,3.1-2.8-1.7-6.2,1.5-2.7,1.5-4,5.2-3.9,7.4-1.6,7.4-.3,5.3-4.7,1.3-8.5,4-5.2,7.6-2.8,4.5-3.1,1.6-5.1,3.2-12.6,1.2-8.4-.9-7.2-1.2-5.4-3.2-4.1-2.1-4,5.7-9.4.2-3.7,2.5-7,3.9-8.5,3-8.8,1.6-9.9.6-7.6-1.8-4.5-2-3.3,2.3-7.6,5.1-10.7,8-10.4.3-3.9-1.5-4.5-5.2-3.4-2.9-3.1-.2-9.9,3.7-2.9,6.6-2.2,5.2-2.4-.2-3.7-1.4-6.2,2.8-2,1.2-2.1,3.4-1.7,3.1-3.8,1.3-5.1,3-5,7.5-4.7,2.4-6.2.4-4.2,4.7-4.9,2.5,2.1,6.5,3.1,15,3.8,8.3,3.2H408l4.9-4.5,2.4-6,3.8-.9,18.5,11.1,11.1,1.7Z"
            transform="translate(1 1)" />
        <path id="TWN1173" class="cls-1"
            d="M339.4,304.7l1.4,6.2.2,3.7-5.2,2.4-6.6,2.2-3.7,2.9.2,9.9,2.9,3.1,5.2,3.4,1.5,4.5-.3,3.9-8,10.4L321.9,368l-2.3,7.6,2,3.3,1.8,4.5-.6,7.6-1.6,9.9-3,8.8-3.9,8.5-2.5,7-.2,3.7-5.7,9.4,2.1,4,3.2,4.1,1.2,5.4.9,7.2-1.2,8.4L308.9,480l-1.6,5.1-4.5,3.1-7.6,2.8-4,5.2-1.3,8.5-5.3,4.7-7.4.3-7.4,1.6-5.2,3.9-1.5,4-1.5,2.7,1.7,6.2-3.1,2.8-6,3.5-.7-2-4.2-5.9-5.8-2.2-4.3-1-.9-.2-25.6-.2-7.6-1.4-1.1-3.8-.4-5.9-2.7-6.5-1.2-4.8,3-5.1.3-5.3-5.1-2.8-4.1-1.2-6.8-2.6-6.1-.7-2.6-3.5-8.2.9-6.8,2-5.8-2.5-4-4.7.9-5.7,1.9-5.2-1-7.7,1-7.2,2-4.7-1.9-7.2,2.4-1.6,2.5-2.3,3.8-1.5,1-3.5-5.6-2.9-3.9-1.4-3.6-3.3-2.1-6.3.9-13.4,1.2-6.6.1-5.7,1.6-5.4,2-4.6-.5-4,1.2-2.9,4.3-1.6-.1-3.6,4.3.2,17.9,2.5,4.2-.6,5-4.8,7.6-14.4,3.7-8.5,6.4-3,10.1,1.4,6-.2,5.8-7.7,3-1.9,8.9,6.7,3.5-.9,2.6-5.5,4.7-3.9,6.6.1,5-1.9,7.9-7.6,5.1-2.9,4.4-.8,8.8-4.7,6.2-.2,6.3-1,11.1-4.4,4.6-.3,4.7,1,13.4,1.3Z"
            transform="translate(1 1)" />
        <path id="TWN1174" class="cls-1"
            d="M318.1,247.6l.8-.6,10.6-1,2.8.8,3.6,1-.6,5.5,1.4,3.8,4.9,1,4.4,2.6,3.7,2.5,4-.6,4.7-2.3h4.9l5.9,4.7-4.7,4.9-.4,4.2-2.4,6.2-7.5,4.7-3,5-1.3,5.1-3.1,3.8-3.4,1.7-1.2,2.1-2.8,2L326,303.4l-4.7-1-4.6.3-11.1,4.4-6.3,1-6.2.2-8.8,4.7-4.4.8-5.1,2.9-7.9,7.6-5,1.9-6.6-.1-4.7,3.9-2.6,5.5-3.5.9-8.9-6.7-3,1.9-5.8,7.7-6,.2-10.1-1.4-6.4,3-3.7,8.5L193,364l-5,4.8-4.2.6-17.9-2.5-4.3-.2v-1.4l-5.4-3.5-4.3-.8-1.2-3.3-.1-4-2-4-3.2-5-4.3-3.6-11.9-3.5-4.5-5.4-1-7.6-2.7-6.3-4-3.5-5.8-1.9.6-.8.8-3.3,3.3-2.7,2.2-6.5,2.7-12.3,9.3-16.1,2.8-9.9,3.4-5.5L149.6,241l9.2,14.3,4.7,5,6.3,5.5,15.1,11.1,7.3,3.6,6.6,1.2,11.6,6.7,12.1-.7,5.2-2.8.9-7.4,5.5-3.3,9.9.8,6,2.4,5,5.6,5.4,2.1,8.9-4.7,6.8-2.9,11.6-9.2,5.9-3.2,4.6-4.4,4.2-3,5.3.1,4.9-2,1.8-5.6,3.7-2.6Z"
            transform="translate(1 1)" />
        <path id="TWN1176" class="cls-1"
            d="M156.4,437.3l1.9,7.2-2,4.7-1,7.2,1,7.7-1.9,5.2-.9,5.7,4,4.7,5.8,2.5,6.8-2,8.2-.9,2.6,3.5h-.5l-.3,5v3.4l-4,1.3-11.7,2.4-6.3.6-2.4-3.9-4.7-3.4-8.3,2.4-3.7.5-12.6-4.6-5-5.9-5.3-4.6-6.9.4-12.6,2.3-7.2,2-16.3,9.4-3.8,3.8-4.4,2.4-7,5.7-5.3.8-2.1,3-1.7,4.9-3.9,3.2-6.1-.1-8.3-4.7-11.6,1.4,4.6-5.2-.2-16.4.7-12.3,2.8-9.8,4.3-7.7,1.3-10,2.3-8.8,1.3-3,6.1-8.1,1.1-2.8.7-1.5,5.6-4.3.8-1.6,7.6,4.4,22-2.6,7.6.4,6.6,1.8,11.6,4.4,19.7,2.3,12.2,6,5.8-.1,12,2.4,1-.7Z"
            transform="translate(1 1)" />
        <path id="TWN1177" class="cls-1"
            d="M216.5,876.6l-4.5.3-10.2-4.7-4.6-4.9-3.2-5.9-.6-6.1.1-5.7-3.1-4.4-3.4-1.7-2.7-3.9.5-4.5,2.1-3.9,5.3-3.2,2.5-3.8-4.6-5.6-2.6-5v-5.4l-1.1-7.1-2-6.1-1.2-6.5.8-14.7,3-7.5,3.7-6.6,2.4-6.6,5.4-4.5,7.6-1.6,4.8-2.7,9.8-4.1,2-5,.1-5.2,2.8-13.8-5.5-3.6-5.4-1.3-.7-4.9-3.5-6.6,3.9-.5-1.2-4.9L207,688l-3-4.6-1.3-8.1,2.3-9.8,8.5-7.2,4.3-5.9.1-11.2,3-13.2-2.1-9.9.8-6.9,7.4-4,2.7-4.9-2.3-6,.9-5.7,7.8-5.1,4-3.9,6.4-4.1,15.6-3.8,1.2,7.4,5,8.1,7.8,2.8,6.1,2.9,5,4.8,6.3.9,5.7,1.5,9.2,16,11.7,9.7,8.2,1.1,6.5-3.7.9-6.2-.1-6.7,3.1-6.1,4.8-13.2,3.7-7.7,2.4-8.4,2.7-6.6,3.4-5.2,3.6-6.9-.6-6.9-1.7-6.9,3.9-5.4,10.8-5.2,3.5,1-4.6,26.4-2.2,4.9-7.1,9.4-2.6,4.9-2.1,6.1-1.5,11.4.2,10.2-1,9.7-4.9,9.9-2.1,2.1-4.7,3.5-2.2,2.2-1,2.3-1.7,5.8-4.8,8.4L330,665.1l-2.1,5.9-10.3,14.8-1.3,2.7-13.9,11.8-3.3,3.8-.4,2.7.6,6.2-.2,2.8-1.2,3.2-2.2,3.5-4.7,6.1-4.7,4.5-16.1,10.7-10.8,11.9-2.7,1.4-2.1,2.7-5.2,13.5-2.6,5-8,10-3.3,6-1.9,12.3-4.8,16.8-9.5,16.7-1.4,5.7-1.7,16.1.3,14.7Z"
            transform="translate(1 1)" />
    </g>
    <g id="圖層_4" data-name="圖層 4">
        <g id="_081-甘薯峰" data-name="081-甘薯峰">
            <path class="cls-2"
                d="M345.52,283.66a2.76,2.76,0,0,1,.13-2.3,2.88,2.88,0,0,1,5.46,1.28,2.85,2.85,0,0,1-.2,1l-.14.3-2.16,3.57a.47.47,0,0,1-.79,0L345.66,284Z"
                transform="translate(1 1)" />
            <circle class="cls-2" cx="349.22" cy="283.79" r="1.25" />
        </g>
        <g id="_022-南湖北山" data-name="022-南湖北山">
            <path class="cls-2"
                d="M358.32,256.66a2.76,2.76,0,0,1,.13-2.3,2.87,2.87,0,0,1,5.26,2.3l-.14.3-2.16,3.57a.47.47,0,0,1-.79,0L358.46,257Z"
                transform="translate(1 1)" />
            <circle class="cls-2" cx="362.02" cy="256.79" r="1.25" />
        </g>
        <g id="_075-三星山" data-name="075-三星山">
            <path class="cls-2"
                d="M352.55,257.82a2.72,2.72,0,0,1,.12-2.3,2.87,2.87,0,0,1,5.26,2.3l-.13.3-2.17,3.56a.45.45,0,0,1-.78,0l-2.17-3.56Z"
                transform="translate(1 1)" />
            <circle class="cls-2" cx="356.24" cy="257.94" r="1.25" />
        </g>
        <g id="_014-南湖東峰" data-name="014-南湖東峰">
            <path class="cls-2"
                d="M361.54,261.82a2.78,2.78,0,0,1,.13-2.31,2.88,2.88,0,0,1,5.46,1.29,2.89,2.89,0,0,1-.2,1l-.14.29-2.16,3.57a.47.47,0,0,1-.79,0l-2.16-3.57Z"
                transform="translate(1 1)" />
            <circle class="cls-2" cx="365.24" cy="261.94" r="1.25" />
        </g>
        <g id="_008-南湖大山" data-name="008-南湖大山">
            <path class="cls-2"
                d="M358.32,263.06a2.78,2.78,0,0,1,.13-2.31,2.92,2.92,0,0,1,2-1.56,2.89,2.89,0,0,1,3.22,3.87l-.14.29-2.16,3.57a.47.47,0,0,1-.79,0l-2.16-3.57Z"
                transform="translate(1 1)" />
            <circle class="cls-2" cx="362.02" cy="263.18" r="1.25" />
        </g>
        <g id="_029-南湖大山南峰" data-name="029-南湖大山南峰">
            <path class="cls-2"
                d="M356.69,267.05a2.72,2.72,0,0,1,.12-2.3,2.87,2.87,0,0,1,5.26,2.3l-.13.3-2.17,3.57a.46.46,0,0,1-.78,0l-2.17-3.57Z"
                transform="translate(1 1)" />
            <circle class="cls-2" cx="360.38" cy="267.18" r="1.25" />
        </g>
        <g id="_032-巴巴山" data-name="032-巴巴山">
            <path class="cls-2"
                d="M357.94,269.47a2.78,2.78,0,0,1,.12-2.31,2.92,2.92,0,0,1,2.05-1.55,2.88,2.88,0,0,1,3.22,3.86l-.14.3L361,273.33a.46.46,0,0,1-.79,0l-2.16-3.56Z"
                transform="translate(1 1)" />
            <circle class="cls-2" cx="361.63" cy="269.59" r="1.25" />
        </g>
        <g id="_073-馬比杉山" data-name="073-馬比杉山">
            <path class="cls-2"
                d="M370.68,266.61a2.76,2.76,0,0,1,.13-2.3,2.87,2.87,0,0,1,5.26,2.3l-.14.3-2.16,3.56a.45.45,0,0,1-.78,0l-2.17-3.56Z"
                transform="translate(1 1)" />
            <circle class="cls-2" cx="374.38" cy="266.73" r="1.25" />
        </g>
        <g id="_010-中央尖山" data-name="010-中央尖山">
            <path class="cls-2"
                d="M352.55,277.8a2.72,2.72,0,0,1,.12-2.3,2.87,2.87,0,0,1,5.26,2.3l-.13.3-2.17,3.56a.45.45,0,0,1-.78,0l-2.17-3.56Z"
                transform="translate(1 1)" />
            <circle class="cls-2" cx="356.24" cy="277.92" r="1.25" />
        </g>
        <g id="_084-喀拉業山" data-name="084-喀拉業山">
            <path class="cls-2"
                d="M327.76,237.49a2.75,2.75,0,0,1,.12-2.3,2.88,2.88,0,0,1,5.27,2.3l-.14.3-2.16,3.56a.46.46,0,0,1-.79,0l-2.16-3.56Z"
                transform="translate(1 1)" />
            <circle class="cls-2" cx="331.45" cy="237.61" r="1.25" />
        </g>
        <g id="_049-桃山" data-name="049-桃山">
            <path class="cls-2"
                d="M323.18,242.82a2.78,2.78,0,0,1,.13-2.31,2.88,2.88,0,0,1,5.46,1.29,2.89,2.89,0,0,1-.2,1l-.14.3-2.16,3.56a.46.46,0,0,1-.79,0l-2.16-3.56Z"
                transform="translate(1 1)" />
            <circle class="cls-2" cx="326.88" cy="242.94" r="1.25" />
        </g>
        <g id="_052-池有山" data-name="052-池有山">
            <path class="cls-2"
                d="M319.38,243.51a2.76,2.76,0,0,1,.13-2.3A2.88,2.88,0,0,1,325,242.5a2.8,2.8,0,0,1-.2,1l-.14.3-2.16,3.57a.46.46,0,0,1-.78,0l-2.17-3.57Z"
                transform="translate(1 1)" />
            <circle class="cls-2" cx="323.08" cy="243.64" r="1.25" />
        </g>
        <g id="_024-品田山" data-name="024-品田山">
            <path class="cls-2"
                d="M313.61,244.6a2.78,2.78,0,0,1,.12-2.31,2.92,2.92,0,0,1,2-1.55A2.88,2.88,0,0,1,319,244.6l-.14.3-2.16,3.56a.46.46,0,0,1-.79,0l-2.16-3.56Z"
                transform="translate(1 1)" />
            <circle class="cls-2" cx="317.3" cy="244.72" r="1.25" />
        </g>
        <g id="_028-大霸尖山" data-name="028-大霸尖山">
            <path class="cls-2"
                d="M311.14,235.27a2.76,2.76,0,0,1,.13-2.3,2.88,2.88,0,0,1,5.46,1.28,2.85,2.85,0,0,1-.2,1l-.14.3-2.16,3.57a.46.46,0,0,1-.78,0l-2.17-3.57Z"
                transform="translate(1 1)" />
            <circle class="cls-2" cx="314.84" cy="235.4" r="1.25" />
        </g>
        <g id="_036-小霸尖山" data-name="036-小霸尖山">
            <path class="cls-2"
                d="M309.89,237.05a2.76,2.76,0,0,1,.13-2.3,2.88,2.88,0,0,1,5.46,1.28,2.81,2.81,0,0,1-.2,1l-.14.3L313,240.92a.47.47,0,0,1-.79,0L310,237.35Z"
                transform="translate(1 1)" />
            <circle class="cls-2" cx="313.59" cy="237.18" r="1.25" />
        </g>
        <g id="_053-伊澤山" data-name="053-伊澤山">
            <path class="cls-2"
                d="M307.83,231.57a2.78,2.78,0,0,1,.13-2.31,2.92,2.92,0,0,1,2-1.56,2.89,2.89,0,0,1,3.22,3.87l-.14.29-2.16,3.57a.47.47,0,0,1-.79,0L308,231.86Z"
                transform="translate(1 1)" />
            <circle class="cls-2" cx="311.53" cy="231.69" r="1.25" />
        </g>
        <g id="_086-加利山" data-name="086-加利山">
            <path class="cls-2"
                d="M300.22,235.56a2.72,2.72,0,0,1,.13-2.3,2.87,2.87,0,0,1,5.26,2.3l-.14.3-2.16,3.57a.47.47,0,0,1-.79,0l-2.16-3.57Z"
                transform="translate(1 1)" />
            <circle class="cls-2" cx="303.91" cy="235.69" r="1.25" />
        </g>
        <g id="_011-雪山北峰" data-name="011-雪山北峰">
            <path class="cls-2"
                d="M306.58,247.8a2.75,2.75,0,0,1,.12-2.3,2.88,2.88,0,0,1,5.27,2.3l-.14.3-2.16,3.56a.46.46,0,0,1-.79,0l-2.16-3.56Z"
                transform="translate(1 1)" />
            <circle class="cls-2" cx="310.27" cy="247.92" r="1.25" />
        </g>
        <g id="_075-雪山東峰" data-name="075-雪山東峰">
            <path class="cls-2"
                d="M314.86,255.6a2.72,2.72,0,0,1,.13-2.3,2.87,2.87,0,0,1,5.26,2.3l-.14.3L318,259.47a.47.47,0,0,1-.79,0L315,255.9Z"
                transform="translate(1 1)" />
            <circle class="cls-2" cx="318.55" cy="255.73" r="1.25" />
        </g>
        <g id="_002-雪山" data-name="002-雪山">
            <path class="cls-2"
                d="M304.36,257a2.76,2.76,0,0,1,.13-2.3,2.87,2.87,0,0,1,5.26,2.3l-.14.3-2.16,3.57a.47.47,0,0,1-.79,0l-2.16-3.57Z"
                transform="translate(1 1)" />
            <circle class="cls-2" cx="308.06" cy="257.08" r="1.25" />
        </g>
        <g id="_051-火石山" data-name="051-火石山">
            <path class="cls-2"
                d="M289.94,257.82a2.75,2.75,0,0,1,.12-2.3,2.88,2.88,0,0,1,5.27,2.3l-.14.3L293,261.68a.46.46,0,0,1-.79,0l-2.16-3.56Z"
                transform="translate(1 1)" />
            <circle class="cls-2" cx="293.63" cy="257.94" r="1.25" />
        </g>
        <g id="_026-頭鷹山" data-name="026-頭鷹山">
            <path class="cls-2"
                d="M280.41,264.39a2.75,2.75,0,0,1,.12-2.3,2.94,2.94,0,0,1,2.05-1.56,2.89,2.89,0,0,1,3.41,2.84,2.85,2.85,0,0,1-.19,1l-.14.3-2.16,3.57a.47.47,0,0,1-.79,0l-2.16-3.57Z"
                transform="translate(1 1)" />
            <circle class="cls-2" cx="284.1" cy="264.52" r="1.25" />
        </g>
        <g id="_023-大雪山" data-name="023-大雪山">
            <path class="cls-2"
                d="M275.83,272.5a2.76,2.76,0,0,1,.13-2.3,2.87,2.87,0,0,1,5.26,2.3l-.14.3-2.16,3.56a.45.45,0,0,1-.78,0L276,272.8Z"
                transform="translate(1 1)" />
            <circle class="cls-2" cx="279.53" cy="272.62" r="1.25" />
        </g>
        <g id="_079-中雪山" data-name="079-中雪山">
            <path class="cls-2"
                d="M263.51,270.61a2.78,2.78,0,0,1,.12-2.31,3,3,0,0,1,2.05-1.56,2.89,2.89,0,0,1,3.22,3.87l-.14.3-2.16,3.56a.46.46,0,0,1-.79,0l-2.16-3.56Z"
                transform="translate(1 1)" />
            <circle class="cls-2" cx="267.2" cy="270.73" r="1.25" />
        </g>
        <g id="_064-小劍山" data-name="064-小劍山">
            <path class="cls-2"
                d="M287.05,282.7a2.75,2.75,0,0,1,.12-2.3,2.88,2.88,0,0,1,5.27,2.3l-.14.3-2.16,3.56a.46.46,0,0,1-.79,0L287.19,283Z"
                transform="translate(1 1)" />
            <circle class="cls-2" cx="290.74" cy="282.82" r="1.25" />
        </g>
        <g id="_050-佳陽山" data-name="050-佳陽山">
            <path class="cls-2"
                d="M292.83,279.67a2.74,2.74,0,0,1,.12-2.31,2.87,2.87,0,0,1,5.26,2.31l-.13.3-2.17,3.56a.45.45,0,0,1-.78,0L293,280Z"
                transform="translate(1 1)" />
            <circle class="cls-2" cx="296.52" cy="279.79" r="1.25" />
        </g>
        <g id="_018-大劍山" data-name="018-大劍山">
            <path class="cls-2"
                d="M297,269.75a2.75,2.75,0,0,1,.12-2.3,2.94,2.94,0,0,1,2.05-1.56,2.9,2.9,0,0,1,3.41,2.85,2.79,2.79,0,0,1-.19,1l-.14.3-2.17,3.57a.46.46,0,0,1-.78,0l-2.16-3.57Z"
                transform="translate(1 1)" />
            <circle class="cls-2" cx="300.66" cy="269.88" r="1.25" />
        </g>
        <g id="_044-志佳陽大山" data-name="044-志佳陽大山">
            <path class="cls-2"
                d="M309.89,264.06a2.76,2.76,0,0,1,.13-2.3,2.88,2.88,0,0,1,5.46,1.28,2.85,2.85,0,0,1-.2,1l-.14.3L313,267.93a.47.47,0,0,1-.79,0L310,264.36Z"
                transform="translate(1 1)" />
            <circle class="cls-2" cx="313.59" cy="264.19" r="1.25" />
        </g>
        <g id="_080-閂山" data-name="080-閂山">
            <path class="cls-2"
                d="M324.44,293.11a2.72,2.72,0,0,1,.12-2.3,2.87,2.87,0,0,1,5.26,2.3l-.13.3L327.52,297a.46.46,0,0,1-.78,0l-2.17-3.57Z"
                transform="translate(1 1)" />
            <circle class="cls-2" cx="328.13" cy="293.24" r="1.25" />
        </g>
        <g id="_060-鈴鳴山" data-name="060-鈴鳴山">
            <path class="cls-2"
                d="M335.42,296.74a2.75,2.75,0,0,1,.12-2.3,2.94,2.94,0,0,1,2-1.56,2.89,2.89,0,0,1,3.41,2.84,2.8,2.8,0,0,1-.19,1l-.14.3-2.16,3.57a.47.47,0,0,1-.79,0L335.56,297Z"
                transform="translate(1 1)" />
            <circle class="cls-2" cx="339.11" cy="296.87" r="1.25" />
        </g>
        <g id="_031-無明山" data-name="031-無明山">
            <path class="cls-2"
                d="M344.27,293.94a2.76,2.76,0,0,1,.13-2.3,2.87,2.87,0,0,1,5.26,2.3l-.14.3-2.16,3.56a.46.46,0,0,1-.79,0l-2.16-3.56Z"
                transform="translate(1 1)" />
            <circle class="cls-2" cx="347.97" cy="294.06" r="1.25" />
        </g>
        <g id="_039-畢祿山" data-name="039-畢祿山">
            <path class="cls-2"
                d="M334.78,305.74a2.72,2.72,0,0,1,.12-2.3,2.94,2.94,0,0,1,2-1.56,2.9,2.9,0,0,1,3.42,2.84,2.81,2.81,0,0,1-.2,1l-.13.3-2.17,3.57a.46.46,0,0,1-.78,0L334.91,306Z"
                transform="translate(1 1)" />
            <circle class="cls-2" cx="338.47" cy="305.87" r="1.25" />
        </g>
        <g id="_096-羊頭山" data-name="096-羊頭山">
            <path class="cls-2"
                d="M342.64,307.52a2.72,2.72,0,0,1,.12-2.3,2.88,2.88,0,0,1,5.46,1.29,2.8,2.8,0,0,1-.2,1l-.13.3-2.17,3.57a.46.46,0,0,1-.78,0l-2.17-3.57Z"
                transform="translate(1 1)" />
            <circle class="cls-2" cx="346.33" cy="307.65" r="1.25" />
        </g>
        <g id="_034-合歡山北峰" data-name="034-合歡山北峰">
            <path class="cls-2"
                d="M316.71,315a2.75,2.75,0,0,1,.12-2.3,2.88,2.88,0,0,1,5.27,2.3l-.14.3-2.16,3.56a.46.46,0,0,1-.79,0l-2.16-3.56Z"
                transform="translate(1 1)" />
            <circle class="cls-2" cx="320.4" cy="315.16" r="1.25" />
        </g>
        <g id="_082-合歡山西峰" data-name="082-合歡山西峰">
            <path class="cls-2"
                d="M307.46,316.36a2.76,2.76,0,0,1,.13-2.3,2.87,2.87,0,0,1,5.26,2.3l-.14.3-2.16,3.56a.46.46,0,0,1-.79,0l-2.16-3.56Z"
                transform="translate(1 1)" />
            <circle class="cls-2" cx="311.16" cy="316.48" r="1.25" />
        </g>
        <g id="_070-石門山" data-name="070-石門山">
            <path class="cls-2"
                d="M318,323a2.76,2.76,0,0,1,.13-2.3,2.87,2.87,0,0,1,5.26,2.3l-.14.3-2.16,3.57a.47.47,0,0,1-.79,0l-2.16-3.57Z"
                transform="translate(1 1)" />
            <circle class="cls-2" cx="321.66" cy="323.16" r="1.25" />
        </g>
        <g id="_037-合歡山" data-name="037-合歡山">
            <path class="cls-2"
                d="M314.74,326.06a2.76,2.76,0,0,1,.13-2.3,2.92,2.92,0,0,1,2-1.56,2.89,2.89,0,0,1,3.41,2.85,2.79,2.79,0,0,1-.19,1l-.14.3-2.16,3.57a.47.47,0,0,1-.79,0l-2.16-3.57Z"
                transform="translate(1 1)" />
            <circle class="cls-2" cx="318.44" cy="326.19" r="1.25" />
        </g>
        <g id="_035-合歡山東峰" data-name="035-合歡山東峰">
            <path class="cls-2"
                d="M316.71,328.21a2.75,2.75,0,0,1,.12-2.3,2.94,2.94,0,0,1,2.05-1.56,2.88,2.88,0,0,1,3.22,3.86l-.14.3-2.16,3.57a.47.47,0,0,1-.79,0l-2.16-3.57Z"
                transform="translate(1 1)" />
            <circle class="cls-2" cx="320.4" cy="328.34" r="1.25" />
        </g>
        <g id="_065-屏風山" data-name="065-屏風山">
            <path class="cls-2"
                d="M332.53,324.81a2.75,2.75,0,0,1,.12-2.3A2.94,2.94,0,0,1,334.7,321a2.88,2.88,0,0,1,3.22,3.86l-.14.3-2.16,3.57a.47.47,0,0,1-.79,0l-2.16-3.57Z"
                transform="translate(1 1)" />
            <circle class="cls-2" cx="336.22" cy="324.94" r="1.25" />
        </g>
        <g id="_016-奇萊主北" data-name="016-奇萊主北">
            <path class="cls-2"
                d="M331.28,332.81a2.74,2.74,0,0,1,.12-2.31,2.94,2.94,0,0,1,2.05-1.56,2.9,2.9,0,0,1,3.41,2.85,2.69,2.69,0,0,1-.2,1l-.13.29-2.17,3.57a.46.46,0,0,1-.78,0l-2.17-3.57Z"
                transform="translate(1 1)" />
            <circle class="cls-2" cx="334.97" cy="332.93" r="1.25" />
        </g>
        <g id="_088-磐石山" data-name="088-磐石山">
            <path class="cls-2"
                d="M345.1,336.2a2.72,2.72,0,0,1,.13-2.3,2.92,2.92,0,0,1,2-1.56,2.89,2.89,0,0,1,3.41,2.85,2.79,2.79,0,0,1-.19,1l-.14.3-2.16,3.57a.47.47,0,0,1-.79,0l-2.16-3.57Z"
                transform="translate(1 1)" />
            <circle class="cls-2" cx="348.79" cy="336.33" r="1.25" />
        </g>
        <g id="_093-立霧主山" data-name="093-立霧主山">
            <path class="cls-2"
                d="M360.05,331a2.74,2.74,0,0,1,.12-2.31,2.88,2.88,0,0,1,5.46,1.29,2.89,2.89,0,0,1-.2,1l-.13.29-2.17,3.57a.46.46,0,0,1-.78,0l-2.17-3.57Z"
                transform="translate(1 1)" />
            <circle class="cls-2" cx="363.74" cy="331.15" r="1.25" />
        </g>
        <g id="_089-帕托魯山" data-name="089-帕托魯山">
            <path class="cls-2"
                d="M365.82,338a2.78,2.78,0,0,1,.13-2.31,2.92,2.92,0,0,1,2-1.56,2.89,2.89,0,0,1,3.22,3.87l-.14.29-2.16,3.57a.47.47,0,0,1-.79,0L366,338.28Z"
                transform="translate(1 1)" />
            <circle class="cls-2" cx="369.52" cy="338.11" r="1.25" />
        </g>
        <g id="_056-太魯閣大山" data-name="056-太魯閣大山">
            <path class="cls-2"
                d="M353.8,344.2a2.75,2.75,0,0,1,.12-2.3,2.88,2.88,0,0,1,5.27,2.3l-.14.3-2.16,3.56a.46.46,0,0,1-.79,0l-2.16-3.56Z"
                transform="translate(1 1)" />
            <circle class="cls-2" cx="357.49" cy="344.32" r="1.25" />
        </g>
        <g id="_020-奇萊主山" data-name="020-奇萊主山">
            <path class="cls-2"
                d="M328.39,342.27a2.75,2.75,0,0,1,.12-2.3,2.88,2.88,0,0,1,5.27,2.3l-.14.3-2.16,3.56a.46.46,0,0,1-.79,0l-2.16-3.56Z"
                transform="translate(1 1)" />
            <circle class="cls-2" cx="332.08" cy="342.4" r="1.25" />
        </g>
        <g id="_041-奇萊主山南峰" data-name="041-奇萊主山南峰">
            <path class="cls-2"
                d="M316.71,349.29a2.75,2.75,0,0,1,.12-2.3,2.88,2.88,0,0,1,5.27,2.3l-.14.3-2.16,3.56a.46.46,0,0,1-.79,0l-2.16-3.56Z"
                transform="translate(1 1)" />
            <circle class="cls-2" cx="320.4" cy="349.41" r="1.25" />
        </g>
        <g id="_076-南華山" data-name="076-南華山">
            <path class="cls-2"
                d="M318.35,355.56a2.72,2.72,0,0,1,.12-2.3,2.88,2.88,0,0,1,5.46,1.28,2.85,2.85,0,0,1-.2,1l-.13.3-2.17,3.57a.46.46,0,0,1-.78,0l-2.17-3.57Z"
                transform="translate(1 1)" />
            <circle class="cls-2" cx="322.04" cy="355.69" r="1.25" />
        </g>
        <g id="_062-能高山" data-name="062-能高山">
            <path class="cls-2"
                d="M311.41,369.31a2.75,2.75,0,0,1,.12-2.3,2.88,2.88,0,0,1,5.27,2.3l-.14.3-2.16,3.57a.47.47,0,0,1-.79,0l-2.16-3.57Z"
                transform="translate(1 1)" />
            <circle class="cls-2" cx="315.1" cy="369.44" r="1.25" />
        </g>
        <g id="_043-能高山南峰" data-name="043-能高山南峰">
            <path class="cls-2"
                d="M316.71,377.3a2.75,2.75,0,0,1,.12-2.3,3,3,0,0,1,2.05-1.56,2.9,2.9,0,0,1,3.41,2.85,2.79,2.79,0,0,1-.19,1l-.14.3-2.16,3.57a.47.47,0,0,1-.79,0l-2.16-3.57Z"
                transform="translate(1 1)" />
            <circle class="cls-2" cx="320.4" cy="377.43" r="1.25" />
        </g>
        <g id="_095-光頭山" data-name="095-光頭山">
            <path class="cls-2"
                d="M315.07,384.82a2.76,2.76,0,0,1,.13-2.3,2.87,2.87,0,0,1,5.26,2.3l-.14.3-2.16,3.56a.46.46,0,0,1-.79,0l-2.16-3.56Z"
                transform="translate(1 1)" />
            <circle class="cls-2" cx="318.77" cy="384.94" r="1.25" />
        </g>
        <g id="_087-白石山" data-name="087-白石山">
            <path class="cls-2"
                d="M315.46,394.64a2.72,2.72,0,0,1,.12-2.3,2.94,2.94,0,0,1,2-1.56,2.9,2.9,0,0,1,3.42,2.84,2.65,2.65,0,0,1-.2,1l-.13.3-2.17,3.57a.46.46,0,0,1-.78,0l-2.17-3.57Z"
                transform="translate(1 1)" />
            <circle class="cls-2" cx="319.15" cy="394.77" r="1.25" />
        </g>
        <g id="_099-六順山" data-name="099-六順山">
            <path class="cls-2"
                d="M309.3,448.4a2.72,2.72,0,0,1,.12-2.3,2.87,2.87,0,0,1,5.26,2.3l-.13.3-2.17,3.56a.45.45,0,0,1-.78,0l-2.17-3.56Z"
                transform="translate(1 1)" />
            <circle class="cls-2" cx="312.99" cy="448.52" r="1.25" />
        </g>
        <g id="_030-東巒大山" data-name="030-東巒大山">
            <path class="cls-2"
                d="M267.46,470.36a2.76,2.76,0,0,1,.13-2.3,2.87,2.87,0,0,1,5.26,2.3l-.14.3-2.16,3.56a.46.46,0,0,1-.79,0l-2.16-3.56Z"
                transform="translate(1 1)" />
            <circle class="cls-2" cx="271.16" cy="470.48" r="1.25" />
        </g>
        <g id="_091-西巒大山" data-name="091-西巒大山">
            <path class="cls-2"
                d="M231.64,458.11a2.76,2.76,0,0,1,.13-2.3,2.88,2.88,0,0,1,5.46,1.29,2.8,2.8,0,0,1-.2,1l-.14.3L234.73,462a.47.47,0,0,1-.79,0l-2.16-3.57Z"
                transform="translate(1 1)" />
            <circle class="cls-2" cx="235.34" cy="458.24" r="1.25" />
        </g>
        <g id="_015-東郡大山" data-name="015-東郡大山">
            <path class="cls-2"
                d="M270,475.91a2.76,2.76,0,0,1,.13-2.3,2.87,2.87,0,0,1,5.26,2.3l-.14.3L273,479.77a.45.45,0,0,1-.78,0l-2.17-3.56Z"
                transform="translate(1 1)" />
            <circle class="cls-2" cx="273.65" cy="476.04" r="1.25" />
        </g>
        <g id="_048-丹大山" data-name="048-丹大山">
            <path class="cls-2"
                d="M302.16,483.9a2.76,2.76,0,0,1,.13-2.3,2.88,2.88,0,0,1,5.46,1.28,2.81,2.81,0,0,1-.2,1l-.14.3-2.16,3.57a.46.46,0,0,1-.78,0l-2.17-3.57Z"
                transform="translate(1 1)" />
            <circle class="cls-2" cx="305.86" cy="484.03" r="1.25" />
        </g>
        <g id="_059-內嶺爾山" data-name="059-內嶺爾山">
            <path class="cls-2"
                d="M297.43,490a2.72,2.72,0,0,1,.13-2.3,2.87,2.87,0,0,1,5.26,2.3l-.14.3-2.16,3.56a.46.46,0,0,1-.79,0l-2.16-3.56Z"
                transform="translate(1 1)" />
            <circle class="cls-2" cx="301.12" cy="490.08" r="1.25" />
        </g>
        <g id="_067-義西請馬至山" data-name="067-義西請馬至山">
            <path class="cls-2"
                d="M286.09,487.9a2.76,2.76,0,0,1,.13-2.3,2.87,2.87,0,0,1,5.26,2.3l-.14.3-2.16,3.56a.46.46,0,0,1-.79,0l-2.16-3.56Z"
                transform="translate(1 1)" />
            <circle class="cls-2" cx="289.79" cy="488.03" r="1.25" />
        </g>
        <g id="_071-無雙山" data-name="071-無雙山">
            <path class="cls-2"
                d="M261.68,486.94a2.76,2.76,0,0,1,.13-2.3,2.87,2.87,0,0,1,5.26,2.3l-.14.3-2.16,3.56a.46.46,0,0,1-.79,0l-2.16-3.56Z"
                transform="translate(1 1)" />
            <circle class="cls-2" cx="265.38" cy="487.06" r="1.25" />
        </g>
        <g id="_061-郡大山" data-name="061-郡大山">
            <path class="cls-2"
                d="M236.37,490.25a2.78,2.78,0,0,1,.13-2.31,2.88,2.88,0,0,1,5.46,1.29,2.89,2.89,0,0,1-.2,1l-.14.3-2.16,3.56a.46.46,0,0,1-.79,0l-2.16-3.56Z"
                transform="translate(1 1)" />
            <circle class="cls-2" cx="240.07" cy="490.37" r="1.25" />
        </g>
        <g id="_098-盆駒山" data-name="098-盆駒山">
            <path class="cls-2"
                d="M255,498.94a2.75,2.75,0,0,1,.12-2.3,2.94,2.94,0,0,1,2-1.56,2.89,2.89,0,0,1,3.41,2.84,2.85,2.85,0,0,1-.19,1l-.14.3-2.16,3.57a.47.47,0,0,1-.79,0l-2.16-3.57Z"
                transform="translate(1 1)" />
            <circle class="cls-2" cx="258.67" cy="499.07" r="1.25" />
        </g>
        <g id="_007-馬博拉斯山" data-name="007-馬博拉斯山">
            <path class="cls-2"
                d="M262.94,507.21a2.72,2.72,0,0,1,.12-2.3,2.94,2.94,0,0,1,2-1.56,2.9,2.9,0,0,1,3.42,2.85,2.8,2.8,0,0,1-.2,1l-.13.3L266,511.08a.46.46,0,0,1-.78,0l-2.17-3.57Z"
                transform="translate(1 1)" />
            <circle class="cls-2" cx="266.63" cy="507.34" r="1.25" />
        </g>
        <g id="_021-馬利加南山" data-name="021-馬利加南山">
            <path class="cls-2"
                d="M277,506.25a2.76,2.76,0,0,1,.13-2.3,2.87,2.87,0,0,1,5.26,2.3l-.14.3L280,510.11a.46.46,0,0,1-.79,0l-2.16-3.56Z"
                transform="translate(1 1)" />
            <circle class="cls-2" cx="280.65" cy="506.38" r="1.25" />
        </g>
        <g id="_087-白石山-2" data-name="087-白石山">
            <path class="cls-2"
                d="M291.87,516.74a2.78,2.78,0,0,1,.12-2.31,2.92,2.92,0,0,1,2.05-1.55,2.88,2.88,0,0,1,3.22,3.86l-.14.3L295,520.6a.46.46,0,0,1-.79,0L292,517Z"
                transform="translate(1 1)" />
            <circle class="cls-2" cx="295.56" cy="516.86" r="1.25" />
        </g>
        <g id="_087-白石山-3" data-name="087-白石山">
            <path class="cls-2"
                d="M296.39,523.21a2.75,2.75,0,0,1,.12-2.3,2.94,2.94,0,0,1,2.05-1.56,2.88,2.88,0,0,1,3.22,3.86l-.14.3-2.16,3.57a.47.47,0,0,1-.79,0l-2.16-3.57Z"
                transform="translate(1 1)" />
            <circle class="cls-2" cx="300.08" cy="523.34" r="1.25" />
        </g>
        <g id="_006-秀姑巒山" data-name="006-秀姑巒山">
            <path class="cls-2"
                d="M261.68,513.81a2.76,2.76,0,0,1,.13-2.3,2.87,2.87,0,0,1,5.26,2.3l-.14.3-2.16,3.57a.47.47,0,0,1-.79,0l-2.16-3.57Z"
                transform="translate(1 1)" />
            <circle class="cls-2" cx="265.38" cy="513.94" r="1.25" />
        </g>
        <g id="_013-大水窟山" data-name="013-大水窟山">
            <path class="cls-2"
                d="M255.91,520.73a2.75,2.75,0,0,1,.12-2.3,2.88,2.88,0,0,1,5.46,1.28,2.85,2.85,0,0,1-.19,1l-.14.3L259,524.6a.46.46,0,0,1-.78,0L256.05,521Z"
                transform="translate(1 1)" />
            <circle class="cls-2" cx="259.6" cy="520.86" r="1.25" />
        </g>
        <g id="_046-八通關大山" data-name="046-八通關大山">
            <path class="cls-2"
                d="M249.2,515.22a2.76,2.76,0,0,1,.13-2.3,2.87,2.87,0,0,1,5.26,2.3l-.14.3-2.16,3.56a.46.46,0,0,1-.79,0l-2.16-3.56Z"
                transform="translate(1 1)" />
            <circle class="cls-2" cx="252.9" cy="515.34" r="1.25" />
        </g>
        <g id="_004-玉山北峰" data-name="004-玉山北峰">
            <path class="cls-2"
                d="M235.12,515.51a2.78,2.78,0,0,1,.13-2.31,2.88,2.88,0,0,1,5.26,2.31l-.14.3-2.16,3.56a.46.46,0,0,1-.79,0l-2.16-3.56Z"
                transform="translate(1 1)" />
            <circle class="cls-2" cx="238.82" cy="515.63" r="1.25" />
        </g>
        <g id="_003-玉山東峰" data-name="003-玉山東峰">
            <path class="cls-2"
                d="M237.63,521a2.72,2.72,0,0,1,.12-2.3A2.87,2.87,0,0,1,243,521l-.13.3-2.17,3.57a.46.46,0,0,1-.78,0l-2.17-3.57Z"
                transform="translate(1 1)" />
            <circle class="cls-2" cx="241.32" cy="521.15" r="1.25" />
        </g>
        <g id="_001-玉山" data-name="001-玉山">
            <path class="cls-2"
                d="M235.12,521.31a2.76,2.76,0,0,1,.13-2.3,2.87,2.87,0,0,1,5.26,2.3l-.14.3-2.16,3.56a.46.46,0,0,1-.79,0l-2.16-3.56Z"
                transform="translate(1 1)" />
            <circle class="cls-2" cx="238.82" cy="521.44" r="1.25" />
        </g>
        <g id="_025-玉山西峰" data-name="025-玉山西峰">
            <path class="cls-2"
                d="M229.35,519.77a2.72,2.72,0,0,1,.12-2.3,2.87,2.87,0,0,1,5.26,2.3l-.13.3-2.17,3.56a.45.45,0,0,1-.78,0l-2.17-3.56Z"
                transform="translate(1 1)" />
            <circle class="cls-2" cx="233.04" cy="519.89" r="1.25" />
        </g>
        <g id="_069-玉山前峰" data-name="069-玉山前峰">
            <path class="cls-2"
                d="M224.22,519.5a2.75,2.75,0,0,1,.12-2.3,2.94,2.94,0,0,1,2-1.56,2.89,2.89,0,0,1,3.41,2.84,2.85,2.85,0,0,1-.19,1l-.14.3-2.16,3.57a.47.47,0,0,1-.79,0l-2.16-3.57Z"
                transform="translate(1 1)" />
            <circle class="cls-2" cx="227.91" cy="519.63" r="1.25" />
        </g>
        <g id="_005-玉山南峰" data-name="005-玉山南峰">
            <path class="cls-2"
                d="M235.12,527.21a2.76,2.76,0,0,1,.13-2.3,2.87,2.87,0,0,1,5.26,2.3l-.14.3-2.16,3.56a.46.46,0,0,1-.79,0l-2.16-3.56Z"
                transform="translate(1 1)" />
            <circle class="cls-2" cx="238.82" cy="527.33" r="1.25" />
        </g>
        <g id="_009-玉山東小南山" data-name="009-玉山東小南山">
            <path class="cls-2"
                d="M236.51,530.24a2.72,2.72,0,0,1,.12-2.3,2.87,2.87,0,0,1,5.26,2.3l-.13.3-2.17,3.56a.45.45,0,0,1-.78,0l-2.17-3.56Z"
                transform="translate(1 1)" />
            <circle class="cls-2" cx="240.2" cy="530.37" r="1.25" />
        </g>
        <g id="_038-南玉山" data-name="038-南玉山">
            <path class="cls-2"
                d="M226.46,533.27a2.72,2.72,0,0,1,.12-2.3,2.88,2.88,0,0,1,5.46,1.28,2.65,2.65,0,0,1-.2,1l-.13.3-2.17,3.57a.46.46,0,0,1-.78,0l-2.17-3.57Z"
                transform="translate(1 1)" />
            <circle class="cls-2" cx="230.15" cy="533.4" r="1.25" />
        </g>
        <g id="_100-鹿山" data-name="100-鹿山">
            <path class="cls-2"
                d="M243.26,526.53a2.72,2.72,0,0,1,.12-2.3,2.87,2.87,0,0,1,5.26,2.3l-.13.3-2.17,3.57a.46.46,0,0,1-.78,0l-2.17-3.57Z"
                transform="translate(1 1)" />
            <circle class="cls-2" cx="246.95" cy="526.66" r="1.25" />
        </g>
        <g id="_074-達芬尖山" data-name="074-達芬尖山">
            <path class="cls-2"
                d="M249.2,531.49a2.76,2.76,0,0,1,.13-2.3,2.87,2.87,0,0,1,5.26,2.3l-.14.3-2.16,3.57a.47.47,0,0,1-.79,0l-2.16-3.57Z"
                transform="translate(1 1)" />
            <circle class="cls-2" cx="252.9" cy="531.62" r="1.25" />
        </g>
        <g id="_092-塔芬山" data-name="092-塔芬山">
            <path class="cls-2"
                d="M252.09,539.75a2.78,2.78,0,0,1,.13-2.31,2.92,2.92,0,0,1,2-1.56,2.89,2.89,0,0,1,3.22,3.87l-.14.29-2.16,3.57a.46.46,0,0,1-.79,0L252.23,540Z"
                transform="translate(1 1)" />
            <circle class="cls-2" cx="255.79" cy="539.87" r="1.25" />
        </g>
        <g id="_057-轆轆山" data-name="057-轆轆山">
            <path class="cls-2"
                d="M246.31,542.78a2.76,2.76,0,0,1,.13-2.3,2.87,2.87,0,0,1,5.26,2.3l-.14.3-2.16,3.56a.46.46,0,0,1-.79,0l-2.16-3.56Z"
                transform="translate(1 1)" />
            <circle class="cls-2" cx="250.01" cy="542.9" r="1.25" />
        </g>
        <g id="_019-雲峰" data-name="019-雲峰">
            <path class="cls-2"
                d="M240,554.28a2.72,2.72,0,0,1,.12-2.3,2.87,2.87,0,0,1,5.26,2.3l-.13.3L243,558.14a.45.45,0,0,1-.78,0l-2.17-3.56Z"
                transform="translate(1 1)" />
            <circle class="cls-2" cx="243.65" cy="554.4" r="1.25" />
        </g>
        <g id="_042-南雙頭山" data-name="042-南雙頭山">
            <path class="cls-2"
                d="M249.65,556.7a2.76,2.76,0,0,1,.13-2.3,2.87,2.87,0,0,1,5.26,2.3l-.14.3-2.16,3.56a.46.46,0,0,1-.79,0L249.79,557Z"
                transform="translate(1 1)" />
            <circle class="cls-2" cx="253.34" cy="556.83" r="1.25" />
        </g>
        <g id="_047-新康山" data-name="047-新康山">
            <path class="cls-2"
                d="M279.39,564.69a2.76,2.76,0,0,1,.13-2.3,2.88,2.88,0,0,1,5.46,1.28,2.85,2.85,0,0,1-.2,1l-.14.3-2.16,3.57a.47.47,0,0,1-.79,0L279.53,565Z"
                transform="translate(1 1)" />
            <circle class="cls-2" cx="283.09" cy="564.82" r="1.25" />
        </g>
        <g id="_087-白石山-4" data-name="087-白石山">
            <path class="cls-2"
                d="M267.08,589.11a2.75,2.75,0,0,1,.12-2.3,2.88,2.88,0,0,1,5.27,2.3l-.14.3L270.16,593a.46.46,0,0,1-.78,0l-2.16-3.57Z"
                transform="translate(1 1)" />
            <circle class="cls-2" cx="270.77" cy="589.24" r="1.25" />
        </g>
        <g id="_027-三叉山" data-name="027-三叉山">
            <path class="cls-2"
                d="M254.51,569.69a2.74,2.74,0,0,1,.12-2.31,2.94,2.94,0,0,1,2-1.56,2.87,2.87,0,0,1,3.22,3.87l-.13.3-2.17,3.56a.45.45,0,0,1-.78,0L254.64,570Z"
                transform="translate(1 1)" />
            <circle class="cls-2" cx="258.2" cy="569.81" r="1.25" />
        </g>
        <g id="_017-向陽山" data-name="017-向陽山">
            <path class="cls-2"
                d="M244.51,574a2.75,2.75,0,0,1,.12-2.3,2.88,2.88,0,0,1,5.27,2.3l-.14.3-2.16,3.57a.47.47,0,0,1-.79,0l-2.16-3.57Z"
                transform="translate(1 1)" />
            <circle class="cls-2" cx="248.2" cy="574.1" r="1.25" />
        </g>
        <g id="_077-關山嶺山" data-name="077-關山嶺山">
            <path class="cls-2"
                d="M234.74,578a2.75,2.75,0,0,1,.12-2.3,2.88,2.88,0,0,1,5.27,2.3l-.14.3-2.16,3.56a.46.46,0,0,1-.79,0l-2.16-3.56Z"
                transform="translate(1 1)" />
            <circle class="cls-2" cx="238.43" cy="578.09" r="1.25" />
        </g>
        <g id="_072-塔關山" data-name="072-塔關山">
            <path class="cls-2"
                d="M231,583.45a2.76,2.76,0,0,1,.13-2.3,2.87,2.87,0,0,1,5.26,2.3l-.14.3-2.16,3.57a.47.47,0,0,1-.79,0l-2.16-3.57Z"
                transform="translate(1 1)" />
            <circle class="cls-2" cx="234.68" cy="583.58" r="1.25" />
        </g>
        <g id="_085-庫哈諾辛山" data-name="085-庫哈諾辛山">
            <path class="cls-2"
                d="M219.05,579.46a2.74,2.74,0,0,1,.12-2.31,2.88,2.88,0,0,1,5.46,1.29,2.89,2.89,0,0,1-.2,1l-.13.29-2.17,3.57a.46.46,0,0,1-.78,0l-2.17-3.57Z"
                transform="translate(1 1)" />
            <circle class="cls-2" cx="222.74" cy="579.58" r="1.25" />
        </g>
        <g id="_012-關山" data-name="012-關山">
            <path class="cls-2"
                d="M223,590a2.75,2.75,0,0,1,.12-2.3,2.88,2.88,0,0,1,5.27,2.3l-.14.3-2.16,3.56a.46.46,0,0,1-.79,0l-2.16-3.56Z"
                transform="translate(1 1)" />
            <circle class="cls-2" cx="226.66" cy="590.07" r="1.25" />
        </g>
        <g id="_078-海諾南山" data-name="078-海諾南山">
            <path class="cls-2"
                d="M223,602.72a2.75,2.75,0,0,1,.12-2.3,2.88,2.88,0,0,1,5.27,2.3l-.14.3-2.16,3.56a.46.46,0,0,1-.79,0L223.11,603Z"
                transform="translate(1 1)" />
            <circle class="cls-2" cx="226.66" cy="602.84" r="1.25" />
        </g>
        <g id="_066-小關山" data-name="066-小關山">
            <path class="cls-2"
                d="M213.27,611.42a2.78,2.78,0,0,1,.12-2.31,3,3,0,0,1,2.05-1.56,2.89,2.89,0,0,1,3.22,3.87l-.14.29-2.16,3.57a.47.47,0,0,1-.79,0l-2.16-3.57Z"
                transform="translate(1 1)" />
            <circle class="cls-2" cx="216.96" cy="611.54" r="1.25" />
        </g>
        <g id="_090-北大武山" data-name="090-北大武山">
            <path class="cls-2"
                d="M180.51,772.74a2.72,2.72,0,0,1,.12-2.3,2.87,2.87,0,0,1,5.26,2.3l-.13.3-2.17,3.57a.46.46,0,0,1-.78,0L180.64,773Z"
                transform="translate(1 1)" />
            <circle class="cls-2" cx="184.2" cy="772.87" r="1.25" />
        </g>
        <g id="_054-卑南主山" data-name="054-卑南主山">
            <path class="cls-2"
                d="M213.76,640.26a2.76,2.76,0,0,1,.13-2.3,2.87,2.87,0,0,1,5.26,2.3l-.14.3-2.16,3.56a.46.46,0,0,1-.79,0l-2.16-3.56Z"
                transform="translate(1 1)" />
            <circle class="cls-2" cx="217.46" cy="640.38" r="1.25" />
        </g>
    </g>
</svg>